<?xml version="1.0" standalone="no"?>
<!DOCTYPE svg PUBLIC "-//W3C//DTD SVG 20010904//EN"
 "http://www.w3.org/TR/2001/REC-SVG-20010904/DTD/svg10.dtd">
<svg version="1.0" xmlns="http://www.w3.org/2000/svg"
 width="1600.000000pt" height="1600.000000pt" viewBox="0 0 1600.000000 1600.000000"
 preserveAspectRatio="xMidYMid meet">
<metadata>
Created by potrace 1.14, written by Peter Selinger 2001-2017
</metadata>
<g transform="translate(0.000000,1600.000000) scale(0.100000,-0.100000)"
fill="#000000" stroke="none">
<path d="M0 8000 l0 -8000 8000 0 8000 0 0 7833 c0 6244 -3 7836 -13 7846 -9
11 -9 12 0 7 10 -5 12 25 10 129 l-2 137 -29 -34 c-15 -18 -23 -23 -17 -12 5
12 7 25 3 29 -4 5 -1 5 6 1 6 -4 12 -2 12 3 0 6 -4 11 -8 11 -5 0 -16 6 -25
13 -16 11 -15 12 9 14 16 0 22 -2 15 -7 -10 -5 -9 -9 3 -13 8 -3 19 -1 22 5 4
7 2 14 -4 16 -7 2 -10 7 -8 11 6 10 -57 6 -74 -4 -9 -5 -11 -4 -6 3 5 9 -1956
12 -7943 12 l-7951 0 0 -8000z m15930 7942 c-6 -2 -8 -8 -5 -12 3 -5 1 -11 -4
-14 -5 -4 -8 2 -6 11 1 10 -3 24 -9 32 -9 12 -8 12 12 0 12 -8 18 -15 12 -17z
m57 -37 c0 -8 -4 -15 -9 -15 -10 0 -11 14 -1 23 9 10 10 9 10 -8z m-1080
-2650 c0 -8 -4 -12 -9 -9 -5 3 -6 10 -3 15 9 13 12 11 12 -6z m83 -29 c0 -3
-4 -8 -10 -11 -5 -3 -10 -1 -10 4 0 6 5 11 10 11 6 0 10 -2 10 -4z m-185 -26
c3 -5 1 -10 -4 -10 -6 0 -11 5 -11 10 0 6 2 10 4 10 3 0 8 -4 11 -10z m82 -10
c-1 -11 -5 -20 -9 -20 -10 0 -10 4 -2 24 8 22 13 20 11 -4z m118 -19 c3 -5 2
-12 -3 -15 -5 -3 -9 1 -9 9 0 17 3 19 12 6z m-80 -20 c3 -5 2 -12 -3 -15 -5
-3 -9 1 -9 9 0 17 3 19 12 6z m-82 -14 c-4 -6 0 -8 9 -5 9 4 15 0 15 -8 0 -19
-11 -18 -30 4 -14 15 -15 19 -2 19 8 0 11 -5 8 -10z m134 -2 c4 -4 3 -5 -4 -2
-6 4 -13 2 -15 -5 -3 -8 -6 -6 -10 4 -7 17 15 19 29 3z m-170 -8 c0 -8 -6 -14
-14 -14 -9 0 -10 4 -2 14 6 7 12 13 14 13 1 0 2 -6 2 -13z m113 -42 c0 -2 -5
-7 -12 -11 -7 -4 -8 -3 -4 4 7 12 -4 16 -34 13 -13 -2 -13 0 -1 8 13 9 51 -2
51 -14z m60 8 c0 -3 -7 -3 -15 1 -8 3 -19 -2 -24 -12 -10 -16 -10 -16 -11 0 0
9 6 18 13 21 13 4 37 -2 37 -10z m-110 -18 c0 -2 -9 -3 -19 -2 -11 0 -18 5
-15 9 4 6 34 0 34 -7z m11 -22 c-12 -20 -14 -14 -5 12 4 9 9 14 11 11 3 -2 0
-13 -6 -23z m80 -16 c-17 -17 -13 -31 4 -17 10 9 15 9 15 1 0 -6 -5 -11 -12
-11 -6 0 -3 -9 7 -20 12 -13 22 -17 30 -10 7 6 17 3 28 -10 9 -11 15 -20 13
-20 -3 0 -13 -3 -23 -6 -12 -4 -14 -3 -6 3 7 5 9 14 4 22 -7 11 -11 9 -21 -9
-14 -25 -12 -28 21 -33 13 -2 29 2 35 11 9 13 12 13 19 1 5 -8 5 -11 0 -7 -4
4 -14 0 -21 -10 -18 -23 -17 -37 1 -22 9 8 15 8 15 2 0 -6 -6 -13 -12 -15 -10
-4 -9 -8 2 -17 13 -10 13 -11 -2 -6 -22 7 -23 -7 -3 -28 9 -9 23 -12 33 -9 9
4 4 -6 -13 -21 -22 -20 -25 -26 -10 -21 11 3 16 3 12 -1 -4 -4 1 -13 11 -21
16 -12 16 -13 -3 -7 -15 4 -13 -1 10 -21 21 -19 24 -24 8 -16 -14 7 -24 8 -28
1 -3 -5 -1 -10 5 -10 6 0 22 -7 36 -16 23 -16 24 -18 8 -35 -19 -21 -6 -26 16
-6 12 10 12 9 0 -6 -7 -10 -19 -16 -26 -13 -6 2 -20 -1 -30 -9 -17 -12 -16
-13 11 -11 17 1 36 5 43 9 7 5 12 4 12 -2 0 -6 -5 -11 -12 -11 -6 0 -8 -3 -5
-6 3 -4 2 -15 -4 -26 -10 -18 -8 -19 13 -14 l23 6 -23 -12 -22 -11 20 -22 21
-23 -26 -20 c-17 -13 -21 -22 -13 -25 7 -2 10 -8 6 -12 -5 -5 -11 -6 -14 -3
-5 5 -7 14 -13 48 -1 3 -5 -2 -11 -10 -5 -9 -5 -19 1 -27 6 -7 7 -18 3 -24 -5
-9 -2 -10 10 -6 10 4 15 3 11 -3 -3 -5 3 -15 15 -22 11 -7 20 -17 20 -22 0 -5
-9 -1 -20 9 -11 10 -20 13 -20 7 0 -6 4 -14 10 -17 5 -3 15 -16 21 -28 9 -17
5 -15 -17 8 -20 20 -27 34 -21 43 12 15 -5 16 -20 1 -9 -9 -5 -19 16 -40 37
-37 46 -69 19 -64 -14 3 -18 0 -14 -11 4 -10 2 -13 -6 -8 -8 5 -9 1 -4 -12 5
-14 4 -16 -4 -8 -14 14 5 58 21 49 5 -4 9 0 9 8 0 17 -37 57 -53 57 -7 0 -3
-8 8 -16 19 -16 19 -16 -5 -9 -22 7 -23 6 -12 -8 8 -9 21 -13 29 -10 10 4 14
2 10 -4 -4 -6 -18 -10 -33 -10 -16 0 -21 2 -14 7 7 4 8 10 3 13 -10 6 -35 -6
-34 -17 3 -20 0 -26 -9 -21 -5 3 -10 -2 -11 -12 0 -13 -2 -14 -6 -4 -3 8 2 20
11 27 10 6 13 15 8 18 -5 3 -21 -5 -36 -19 -14 -13 -26 -20 -26 -15 0 5 11 17
24 25 31 21 25 54 -9 47 -15 -2 -22 -9 -18 -18 4 -11 9 -12 19 -3 8 6 14 7 14
3 0 -5 -10 -15 -22 -23 -13 -7 -20 -10 -16 -6 4 4 3 16 -2 26 -12 21 -3 28 34
31 14 1 26 3 26 4 0 1 -3 9 -6 18 -7 18 -25 22 -21 5 4 -20 -17 -19 -43 2 -19
15 -20 18 -4 10 12 -6 26 -6 35 0 7 5 12 9 9 10 -13 2 -56 9 -67 11 -19 2 -16
11 7 26 12 7 18 17 15 22 -3 6 -1 11 4 11 6 1 16 3 21 4 6 1 12 3 15 4 3 0 0
7 -6 14 -11 11 -16 10 -31 -5 -19 -19 -44 -25 -33 -8 3 6 13 10 21 10 8 0 14
5 14 11 0 5 -4 8 -8 5 -4 -2 -9 5 -9 17 -2 21 -1 21 12 4 7 -10 15 -15 18 -10
6 9 -17 45 -27 44 -23 -3 -28 0 -20 12 8 11 9 19 5 51 0 5 -10 -1 -21 -14 -11
-13 -20 -18 -20 -13 0 6 7 16 15 23 21 17 19 27 -6 33 -17 5 -19 9 -10 25 8
15 8 22 -2 26 -6 3 -3 4 7 3 10 -1 21 5 24 13 3 8 1 12 -3 8 -5 -4 -14 -3 -22
3 -9 9 -13 8 -13 0 0 -6 -5 -11 -10 -11 -6 0 -5 8 2 20 11 16 14 17 21 5 4 -9
13 -13 19 -9 7 4 5 10 -3 16 -11 7 -9 8 4 4 12 -4 17 -2 14 6 -2 7 -12 12 -21
10 -14 -3 -14 0 3 17 12 12 21 25 21 29 0 11 -39 12 -45 1 -4 -5 -10 -9 -16
-9 -5 0 -1 8 9 18 9 10 19 17 21 16 2 -2 17 4 32 13 30 18 39 35 17 31 -7 -2
-12 5 -12 15 2 17 -7 22 -19 11 -3 -4 -2 -15 3 -25 7 -12 7 -20 0 -24 -15 -9
-40 14 -39 34 1 13 2 13 6 -2 2 -9 8 -15 13 -12 5 3 7 12 3 20 -3 8 0 15 7 15
6 0 8 4 5 10 -4 6 1 7 12 4 14 -4 13 -2 -4 14 -23 20 -32 39 -13 27 6 -3 10
-2 10 3 0 6 -7 12 -15 16 -10 3 -15 -1 -15 -11 0 -9 -3 -14 -6 -10 -4 3 -4 13
-1 22 5 12 11 13 32 3 19 -8 22 -14 14 -24 -8 -10 -6 -13 10 -11 26 2 26 12 1
37 -11 11 -20 22 -20 24 0 11 34 15 52 5 18 -10 19 -8 13 13 -5 20 -5 21 6 5
8 -14 8 -22 0 -30z m-115 -5 c-4 -3 -14 2 -24 12 -16 18 -16 18 6 6 13 -6 21
-14 18 -18z m151 -4 c-3 -7 -5 -2 -5 12 0 14 2 19 5 13 2 -7 2 -19 0 -25z m53
7 c-5 -7 -7 -15 -3 -18 3 -4 1 -7 -5 -7 -6 0 -10 8 -9 18 0 10 7 19 14 19 9 0
10 -4 3 -12z m-223 -30 c0 -8 -5 -11 -10 -8 -6 4 -8 0 -5 -9 4 -8 0 -15 -7
-15 -8 0 -13 5 -12 11 1 6 -4 10 -11 8 -8 -1 -11 2 -7 7 3 6 12 8 19 5 8 -3
17 -1 21 5 9 15 12 14 12 -4z m193 1 c0 -2 -7 -6 -15 -10 -8 -3 -15 -1 -15 4
0 6 7 10 15 10 8 0 15 -2 15 -4z m-150 -46 c0 -5 -5 -12 -11 -16 -14 -8 -33
11 -25 25 7 11 36 4 36 -9z m205 2 c-3 -3 -11 0 -18 7 -9 10 -8 11 6 5 10 -3
15 -9 12 -12z m-300 -2 c-3 -5 -12 -10 -18 -10 -7 0 -6 4 3 10 19 12 23 12 15
0z m50 -20 c4 -6 1 -9 -7 -8 -7 2 -12 -2 -11 -8 1 -6 -5 -11 -13 -11 -11 0
-11 4 3 19 19 21 20 21 28 8z m-4 -43 c-10 -9 -11 -8 -5 6 3 10 9 15 12 12 3
-3 0 -11 -7 -18z m304 -5 c-3 -3 -11 0 -18 7 -9 10 -8 11 6 5 10 -3 15 -9 12
-12z m-275 -17 c0 -8 -2 -15 -4 -15 -2 0 -6 7 -10 15 -3 8 -1 15 4 15 6 0 10
-7 10 -15z m240 -25 c-8 -5 -19 -10 -25 -10 -5 0 -3 5 5 10 8 5 20 10 25 10 6
0 3 -5 -5 -10z m41 -7 c13 -16 12 -17 -3 -4 -10 7 -18 15 -18 17 0 8 8 3 21
-13z m-401 -3 c0 -5 -5 -10 -11 -10 -5 0 -7 5 -4 10 3 6 8 10 11 10 2 0 4 -4
4 -10z m145 -20 c-3 -5 -11 -10 -16 -10 -6 0 -7 5 -4 10 3 6 11 10 16 10 6 0
7 -4 4 -10z m-29 -28 c-4 -3 -14 2 -24 12 -16 18 -16 18 6 6 13 -6 21 -14 18
-18z m257 1 c-5 -12 -3 -14 7 -8 9 5 11 4 6 -4 -4 -6 -12 -9 -17 -6 -12 8 -12
35 1 35 5 0 6 -7 3 -17z m-313 -13 c0 -5 -2 -10 -4 -10 -3 0 -8 5 -11 10 -3 6
-1 10 4 10 6 0 11 -4 11 -10z m335 -30 c3 -5 1 -10 -4 -10 -6 0 -11 5 -11 10
0 6 2 10 4 10 3 0 8 -4 11 -10z m-349 -28 c-17 -16 -18 -16 -5 5 7 12 15 20
18 17 3 -2 -3 -12 -13 -22z m379 -19 c-18 -17 -18 -17 -6 0 11 14 11 20 0 35
-12 16 -12 16 6 0 19 -18 19 -18 0 -35z m-354 4 c-10 -9 -11 -8 -5 6 3 10 9
15 12 12 3 -3 0 -11 -7 -18z m40 6 c13 -16 12 -17 -3 -4 -17 13 -22 21 -14 21
2 0 10 -8 17 -17z m-15 -33 c0 -12 -4 -16 -9 -11 -5 5 -6 14 -3 20 10 15 12
14 12 -9z m24 -61 c0 -5 -5 -9 -12 -9 -6 0 -8 3 -5 7 4 3 1 13 -6 22 -11 14
-10 14 6 2 9 -7 17 -17 17 -22z m31 -26 c-12 -20 -14 -14 -5 12 4 9 9 14 11
11 3 -2 0 -13 -6 -23z m293 9 c3 -5 -1 -9 -9 -9 -8 0 -12 4 -9 9 3 4 7 8 9 8
2 0 6 -4 9 -8z m33 -7 c0 -8 -4 -12 -9 -9 -4 3 -8 9 -8 15 0 5 4 9 8 9 5 0 9
-7 9 -15z m-19 -40 c-3 -3 -9 2 -12 12 -6 14 -5 15 5 6 7 -7 10 -15 7 -18z
m-328 -9 c0 -2 -8 -10 -17 -17 -16 -13 -17 -12 -4 4 13 16 21 21 21 13z m31
-23 c-12 -20 -14 -14 -5 12 4 9 9 14 11 11 3 -2 0 -13 -6 -23z m276 12 c0 -8
-4 -12 -9 -9 -4 3 -8 9 -8 15 0 5 4 9 8 9 5 0 9 -7 9 -15z m-337 -29 c0 -3 -4
-8 -10 -11 -5 -3 -10 -1 -10 4 0 6 5 11 10 11 6 0 10 -2 10 -4z m337 -42 c-3
-3 -12 -4 -19 -1 -8 3 -5 6 6 6 11 1 17 -2 13 -5z m-320 -19 c0 -8 -4 -12 -9
-9 -5 3 -6 10 -3 15 9 13 12 11 12 -6z m299 -21 c-4 -9 -9 -15 -11 -12 -3 3
-3 13 1 22 4 9 9 15 11 12 3 -3 3 -13 -1 -22z m54 21 c0 -2 -6 -8 -13 -14 -10
-8 -14 -7 -14 2 0 8 6 14 14 14 7 0 13 -1 13 -2z m-313 -40 c0 -8 -4 -15 -9
-15 -10 0 -11 14 -1 23 9 10 10 9 10 -8z m293 -10 c19 -22 8 -25 -12 -3 -10
10 -14 18 -9 18 5 0 14 -7 21 -15z m-269 -41 c-11 -15 -21 -24 -21 -20 0 10
34 55 39 51 2 -2 -6 -16 -18 -31z m16 -29 c0 -8 -4 -15 -9 -15 -10 0 -11 14
-1 23 9 10 10 9 10 -8z m256 0 c-3 -9 -8 -14 -10 -11 -3 3 -2 9 2 15 9 16 15
13 8 -4z m-134 -32 c-3 -21 2 -33 13 -27 7 5 8 3 3 -6 -6 -10 -11 -9 -22 5
-16 22 -17 35 -3 35 6 0 9 -3 9 -7z m-142 -18 c0 -8 -4 -12 -9 -9 -4 3 -8 9
-8 15 0 5 4 9 8 9 5 0 9 -7 9 -15z m123 -16 c0 -6 -4 -7 -10 -4 -5 3 -10 11
-10 16 0 6 5 7 10 4 6 -3 10 -11 10 -16z m-41 -12 c0 -9 -2 -8 -6 1 -2 6 -10
9 -15 6 -7 -4 -8 -2 -4 5 9 13 26 5 25 -12z m195 15 c3 -5 -1 -9 -9 -9 -8 0
-12 4 -9 9 3 4 7 8 9 8 2 0 6 -4 9 -8z m-99 -22 c3 -5 1 -10 -4 -10 -6 0 -11
5 -11 10 0 6 2 10 4 10 3 0 8 -4 11 -10z m45 6 c0 -2 -7 -7 -16 -10 -8 -3 -12
-2 -9 4 6 10 25 14 25 6z m-126 -25 c3 -4 -2 -16 -12 -24 -16 -15 -18 -15 -18
2 0 12 5 17 15 13 9 -3 12 -1 7 6 -4 7 -5 12 -2 12 3 0 7 -4 10 -9z m49 -8
c-5 -12 -3 -14 7 -8 9 5 11 4 6 -3 -5 -9 -12 -8 -26 1 -20 12 -18 15 17 26 1
1 -1 -6 -4 -16z m-123 -33 c0 -5 -5 -10 -11 -10 -5 0 -7 5 -4 10 3 6 8 10 11
10 2 0 4 -4 4 -10z m90 6 c0 -2 -8 -10 -17 -17 -16 -13 -17 -12 -4 4 13 16 21
21 21 13z m24 -32 c3 -8 2 -12 -4 -9 -6 3 -10 10 -10 16 0 14 7 11 14 -7z
m-124 -34 c-8 -5 -19 -10 -25 -10 -5 0 -3 5 5 10 8 5 20 10 25 10 6 0 3 -5 -5
-10z m170 -15 c0 -7 -30 -13 -34 -7 -3 4 4 9 15 9 10 1 19 0 19 -2z m-13140
-2125 c0 -5 -5 -10 -11 -10 -5 0 -7 5 -4 10 3 6 8 10 11 10 2 0 4 -4 4 -10z
m15 -40 c3 -5 1 -10 -4 -10 -6 0 -11 5 -11 10 0 6 2 10 4 10 3 0 8 -4 11 -10z
m2 -66 c-3 -3 -12 -4 -19 -1 -8 3 -5 6 6 6 11 1 17 -2 13 -5z m-1 -39 c0 -14
-4 -25 -8 -25 -4 0 -8 -5 -8 -11 0 -5 4 -8 8 -5 4 2 8 -11 9 -30 0 -19 -1 -34
-2 -34 -2 0 -10 3 -19 6 -16 6 -23 44 -8 44 5 0 8 15 7 33 -2 25 6 42 21 47 0
0 0 -11 0 -25z m-59 -7 c-3 -8 -6 -5 -6 6 -1 11 2 17 5 13 3 -3 4 -12 1 -19z
m33 -104 c5 -1 15 -2 20 -3 17 -2 11 -18 -7 -18 -18 0 -42 24 -43 42 0 6 5 3
10 -5 5 -8 14 -16 20 -16z m8 -37 c21 5 27 -27 8 -39 -7 -5 -6 -8 4 -8 13 0
13 -1 0 -10 -9 -6 -10 -10 -3 -10 7 0 11 -13 11 -30 -1 -22 -5 -29 -15 -26 -7
3 -13 1 -13 -4 0 -6 6 -10 14 -10 9 0 14 -9 13 -20 -1 -11 -6 -20 -12 -20 -6
0 -5 -3 1 -8 13 -8 14 -72 2 -72 -4 0 -6 13 -4 30 4 32 -16 56 -35 44 -8 -5
-9 -3 -5 5 5 7 14 10 21 7 7 -2 16 1 19 9 3 9 0 12 -8 9 -14 -5 -18 25 -5 41
9 12 7 41 -4 51 -7 8 -11 -10 -7 -36 1 -8 -1 -12 -5 -8 -14 14 -11 44 7 56 10
7 15 18 12 24 -5 7 -2 8 6 3 9 -6 11 -4 5 5 -6 10 -11 9 -21 -5 -8 -10 -17
-15 -21 -11 -4 4 -1 11 6 15 9 6 10 11 2 15 -6 4 -11 13 -11 19 0 7 5 5 10 -5
6 -9 18 -14 28 -11z m-34 -125 c3 -5 -1 -9 -9 -9 -8 0 -12 4 -9 9 3 4 7 8 9 8
2 0 6 -4 9 -8z m22 -91 c0 -16 -3 -17 -14 -9 -12 10 -7 19 13 28 1 0 1 -9 1
-19z m-35 -44 c-10 -9 -11 -8 -5 6 3 10 9 15 12 12 3 -3 0 -11 -7 -18z m66
-22 c0 -8 -4 -12 -9 -9 -4 3 -8 0 -8 -7 0 -7 -2 -10 -5 -7 -7 7 5 38 14 38 4
0 8 -7 8 -15z m-38 -29 c-3 -3 -11 5 -18 17 -13 21 -12 21 5 5 10 -10 16 -20
13 -22z m41 0 c0 -2 -8 -10 -17 -17 -16 -13 -17 -12 -4 4 13 16 21 21 21 13z
m0 -36 c0 -5 -8 -10 -17 -10 -15 0 -16 2 -3 10 19 12 20 12 20 0z m-3 -53 c1
-11 1 -18 0 -16 -2 2 -8 11 -15 20 -9 12 -9 16 1 16 7 0 14 -9 14 -20z m-26
-60 c-10 -9 -11 -8 -5 6 3 10 9 15 12 12 3 -3 0 -11 -7 -18z m29 -1129 c0 -4
-4 -8 -9 -8 -6 0 -12 4 -15 8 -3 5 1 9 9 9 8 0 15 -4 15 -9z m-20 -53 c0 -8
-4 -15 -10 -15 -5 0 -7 7 -4 15 4 8 8 15 10 15 2 0 4 -7 4 -15z m23 -32 c-7
-2 -19 -2 -25 0 -7 3 -2 5 12 5 14 0 19 -2 13 -5z m-46 -18 c0 -8 -4 -12 -9
-9 -5 3 -6 10 -3 15 9 13 12 11 12 -6z m46 -21 c-4 -11 -8 -12 -13 -4 -5 9 -9
9 -14 1 -4 -6 0 -14 8 -17 9 -3 16 -16 17 -27 4 -41 3 -5342 0 -5409 -4 -65
-13 -85 -24 -54 -3 7 0 19 6 26 8 9 9 11 1 7 -7 -4 -17 0 -24 8 -11 14 -15 14
-34 -2 -16 -14 -18 -14 -8 -2 10 14 9 18 -5 24 -10 5 -22 9 -28 9 -5 1 -10 8
-11 16 0 9 1 10 3 2 3 -7 8 -10 13 -7 5 3 11 1 15 -5 3 -5 11 -10 16 -10 5 0
2 11 -7 25 -9 14 -14 28 -10 32 3 4 -1 15 -11 25 -9 10 -13 21 -10 25 4 3 -3
22 -15 42 -12 20 -18 33 -13 29 4 -4 15 -3 25 2 12 6 17 5 17 -6 0 -8 -6 -13
-14 -10 -17 7 -16 -4 2 -28 15 -19 15 -19 15 3 0 12 4 19 10 16 6 -3 10 -1 10
4 0 6 -4 11 -9 11 -12 0 -9 18 8 48 7 13 10 26 7 30 -3 3 -6 0 -6 -7 0 -7 -4
-9 -10 -6 -6 4 -7 -1 -4 -12 5 -16 4 -16 -10 1 -9 11 -16 25 -16 30 0 6 -5 4
-10 -4 -6 -9 -10 -10 -10 -3 0 16 17 26 25 14 9 -16 34 -1 32 20 -1 10 -5 19
-10 19 -5 0 -7 -7 -4 -15 4 -8 2 -17 -3 -20 -6 -4 -10 1 -10 10 0 10 -5 13
-12 9 -6 -4 -8 -3 -4 4 3 5 3 12 -1 15 -5 2 -3 2 4 1 14 -3 38 24 29 33 -3 3
-6 1 -6 -6 0 -7 -4 -10 -10 -6 -5 3 -7 13 -4 23 5 14 4 14 -4 2 -6 -8 -8 -18
-6 -22 10 -16 -9 -8 -21 9 -9 12 -10 23 -4 35 7 13 6 18 -3 18 -7 1 -3 6 10
13 12 7 20 16 16 20 -4 4 -12 2 -19 -3 -8 -7 -12 -5 -12 5 0 8 4 12 9 9 4 -3
8 0 8 6 0 18 23 6 26 -13 1 -9 -5 -21 -14 -27 -10 -5 -12 -10 -6 -10 12 0 54
34 54 44 0 3 -6 5 -12 3 -7 -1 -12 4 -10 11 1 8 -2 11 -8 7 -15 -9 -12 13 6
40 9 14 13 25 9 25 -4 0 -1 8 6 18 13 15 12 16 -3 3 -10 -7 -16 -17 -13 -21 3
-5 1 -11 -5 -15 -6 -4 -9 7 -8 29 2 27 7 35 18 31 13 -4 13 -4 0 7 -19 16 -27
53 -9 42 8 -4 10 -3 5 4 -4 6 -13 9 -22 5 -12 -4 -12 -8 -2 -22 12 -14 11 -15
-4 -2 -12 9 -18 10 -18 2 0 -6 6 -14 13 -17 18 -7 18 -41 0 -48 -9 -4 -18 -4
-21 -1 -3 3 -1 5 5 5 6 0 9 10 8 23 -1 12 -4 22 -5 22 -1 0 -4 10 -5 23 -1 12
0 20 3 18 2 -3 13 -1 24 5 14 8 24 7 36 -3 15 -11 15 -10 -1 8 -9 11 -14 24
-10 29 5 4 3 5 -3 2 -7 -4 -11 3 -11 18 0 14 3 22 8 20 4 -3 11 -1 14 5 4 6 3
10 -2 9 -4 -1 -10 0 -13 1 -22 8 -39 6 -44 -6 -6 -16 5 -18 22 -4 9 7 9 7 2
-2 -14 -16 -13 -31 2 -22 7 4 8 3 4 -5 -4 -6 -12 -9 -17 -6 -5 4 -9 1 -9 -4 0
-6 7 -11 15 -11 22 0 18 -15 -4 -17 -14 -1 -18 5 -17 25 0 16 -5 26 -11 25 -7
-2 0 17 15 41 15 24 32 42 37 41 6 -1 7 0 4 2 -3 2 -5 21 -3 43 3 40 -9 60
-22 39 -4 -7 -3 -9 3 -6 6 4 10 -4 11 -18 0 -14 -4 -22 -9 -19 -5 3 -9 12 -9
20 0 10 -5 12 -12 8 -9 -5 -8 -2 1 9 12 15 11 20 -4 37 -14 15 -15 23 -6 33 6
8 8 17 4 20 -3 4 -2 12 3 19 14 19 11 51 -5 56 -9 3 -11 0 -6 -9 5 -8 4 -10 0
-6 -15 13 -14 36 1 30 16 -6 15 17 -1 29 -6 5 -5 8 3 9 6 1 17 2 24 3 16 2 22
26 6 26 -10 0 -9 3 2 10 12 7 12 12 2 22 -17 17 -15 25 6 30 10 3 19 12 19 21
0 9 -4 14 -9 11 -5 -3 -6 -10 -3 -15 4 -5 -1 -9 -9 -9 -17 0 -18 20 -1 32 5 4
6 10 2 15 -9 9 -28 -17 -21 -29 3 -4 1 -8 -4 -8 -16 0 -23 31 -11 46 6 7 16
12 22 10 7 -1 9 -1 4 1 -4 3 -4 9 -1 15 4 6 -2 6 -14 -1 -15 -8 -23 -8 -28 1
-4 6 -3 8 3 5 6 -4 17 0 24 9 12 14 14 14 26 -2 7 -10 13 -13 13 -7 0 6 -7 16
-15 23 -9 8 -12 18 -7 29 5 9 8 23 7 31 0 8 6 20 13 26 12 8 11 12 -3 24 -13
11 -18 11 -28 0 -10 -10 -9 -12 5 -7 21 7 34 -9 14 -16 -19 -8 -47 25 -37 42
5 7 14 10 20 7 6 -4 18 -3 27 2 11 6 13 11 5 16 -6 4 -11 2 -11 -3 0 -6 -5
-11 -11 -11 -5 0 -7 5 -3 12 5 7 3 8 -6 3 -9 -6 -11 -4 -5 5 6 9 4 12 -7 8
-11 -5 -14 0 -10 18 2 13 7 24 11 24 4 0 7 9 8 20 1 13 -2 18 -10 13 -8 -4 -7
-1 1 9 11 14 10 18 -5 28 -12 8 -13 10 -2 7 8 -3 25 1 38 8 20 10 21 13 7 18
-17 7 -13 27 5 27 6 0 7 -5 3 -12 -4 -7 -3 -8 4 -4 8 5 9 13 2 25 -6 12 -5 22
2 29 21 21 16 38 -11 40 l-26 1 25 -14 c14 -8 22 -15 18 -16 -5 -1 -12 -3 -18
-4 -5 -1 -13 -3 -16 -4 -4 0 0 -9 7 -18 12 -14 12 -16 0 -8 -10 6 -12 4 -6 -5
5 -8 4 -11 -3 -6 -11 7 -11 -12 1 -31 8 -13 -38 -11 -51 2 -4 4 4 4 18 0 22
-7 23 -6 12 8 -8 9 -9 18 -3 21 10 7 9 25 -2 44 -5 7 -4 12 2 12 6 0 11 -5 11
-11 0 -5 5 -7 10 -4 8 5 7 12 -2 22 -6 8 -14 25 -15 36 -3 21 -3 21 11 2 11
-16 17 -17 37 -8 l24 12 -25 -2 c-15 -1 -24 3 -23 11 2 6 -3 12 -11 12 -8 0
-17 4 -20 9 -4 5 3 7 14 4 12 -3 20 0 20 6 0 7 -6 9 -12 5 -10 -5 -10 -4 -1 6
10 11 9 16 -5 27 -16 12 -15 12 3 6 18 -6 18 -5 6 10 -7 9 -10 17 -5 17 5 0 2
5 -6 11 -13 9 -12 10 2 5 10 -3 20 -1 23 4 3 5 14 7 25 5 11 -2 20 0 20 6 0 5
-4 9 -9 9 -5 0 -8 15 -6 33 3 23 2 28 -5 17 -8 -12 -10 -12 -10 -1 0 8 8 20
18 27 16 13 16 14 0 8 -13 -4 -18 -1 -18 11 0 9 4 14 9 10 5 -3 13 0 17 6 4 7
3 9 -4 5 -6 -3 -13 -2 -16 3 -4 5 -1 11 6 14 7 2 6 3 -2 2 -8 0 -14 -6 -13
-13 2 -6 -12 -19 -30 -27 -23 -11 -27 -12 -15 -2 10 8 15 17 11 21 -4 4 1 4
11 0 13 -5 17 -4 12 4 -3 6 -2 13 4 17 5 3 10 11 10 17 0 6 -7 5 -17 -3 -17
-13 -17 -13 -1 6 11 14 14 25 8 35 -5 8 -6 18 -4 22 3 4 1 8 -4 8 -17 0 -22
30 -9 50 13 22 29 27 24 9 -1 -6 4 -14 11 -16 14 -5 17 13 2 22 -5 3 -7 13 -4
23 5 14 4 15 -5 2 -9 -13 -11 -13 -11 2 0 12 -6 16 -21 13 -12 -3 -18 -1 -15
3 4 4 11 7 14 7 4 0 13 4 21 9 10 6 12 5 7 -2 -4 -8 -2 -10 8 -6 15 6 20 64 5
64 -9 0 -6 20 6 40 8 13 7 13 -8 1 -10 -8 -17 -9 -17 -3 0 6 -9 9 -21 7 -17
-3 -19 -2 -9 10 7 8 16 13 20 10 11 -7 21 22 13 41 -5 14 -3 15 18 5 20 -10
21 -10 9 1 -16 14 -28 64 -13 55 5 -3 9 7 9 23 0 24 -2 27 -13 18 -19 -15 -36
2 -22 22 9 12 10 11 4 -5 -5 -16 -4 -17 6 -8 10 10 9 16 -2 29 -13 16 -12 17
6 10 11 -4 16 -4 12 0 -4 4 -1 14 6 23 10 14 10 14 -5 3 -11 -9 -18 -10 -23
-2 -3 6 -11 7 -17 4 -6 -4 -5 -9 3 -15 10 -6 7 -8 -9 -6 -25 1 -29 12 -7 20 8
4 12 15 10 27 -2 11 0 18 6 15 5 -4 9 -1 9 5 0 6 4 9 8 6 4 -2 14 -1 22 4 13
8 12 13 -3 39 -22 37 -22 47 1 30 14 -11 15 -11 5 1 -19 21 -16 34 5 19 16
-13 16 -13 0 7 -10 11 -18 26 -18 33 0 7 -5 9 -10 6 -8 -5 -8 -11 -1 -19 7 -8
4 -21 -9 -41 -11 -17 -20 -25 -20 -19 0 5 6 16 13 23 10 11 7 12 -13 7 -22 -5
-21 -4 4 8 17 8 24 16 18 20 -6 4 -8 14 -5 23 4 11 3 14 -5 9 -7 -4 -12 -2
-12 4 0 7 7 10 15 6 9 -3 15 0 15 10 0 9 5 12 13 8 9 -5 9 -4 0 6 -9 10 -16
10 -26 2 -11 -9 -14 -8 -14 3 0 8 4 12 9 9 11 -7 10 14 -3 38 -9 16 -8 19 2
13 8 -6 11 -4 7 7 -4 8 -1 15 7 15 7 0 11 -7 8 -16 -4 -13 -3 -13 5 -2 7 9 12
10 16 2 4 -6 2 -11 -5 -11 -10 0 -10 -3 -1 -12 8 -8 9 -15 1 -25 -8 -9 -8 -13
0 -13 6 0 11 3 12 8 6 67 5 83 -7 93 -10 8 -14 8 -14 0 0 -6 5 -11 10 -11 6 0
10 -5 10 -10 0 -6 -10 -4 -23 5 -13 8 -26 13 -29 9 -3 -3 -9 0 -14 7 -4 7 -3
10 4 5 6 -3 16 2 21 13 8 14 8 21 -2 24 -6 2 -5 3 3 3 8 -1 14 -8 13 -17 -2
-9 5 -15 17 -16 11 -1 20 3 20 8 0 6 -4 7 -10 4 -5 -3 -10 1 -10 9 0 8 5 18
11 22 8 4 8 9 0 17 -15 15 -14 27 2 23 6 -1 8 -1 3 2 -4 2 -2 8 5 13 10 7 5 8
-13 5 -16 -3 -28 0 -28 5 0 5 9 9 19 9 10 0 22 8 26 18 5 14 4 15 -6 5 -7 -7
-18 -13 -24 -13 -5 1 0 9 12 19 20 17 21 20 6 25 -9 4 -18 4 -21 1 -3 -3 0 -5
6 -5 6 0 0 -11 -14 -25 -29 -29 -31 -30 -31 -10 0 8 4 12 8 10 3 -3 13 3 20
12 12 15 12 16 -6 10 -17 -6 -17 -4 3 9 22 17 32 41 10 28 -7 -4 -8 -3 -4 4 4
7 2 12 -4 12 -6 0 -9 4 -6 9 4 5 0 12 -6 15 -7 3 -1 3 13 1 14 -1 32 1 40 7
11 8 10 9 -3 4 -12 -3 -18 0 -18 10 0 9 5 12 12 8 7 -5 8 -3 3 6 -5 9 -1 10
16 6 l24 -7 -24 14 c-16 10 -20 16 -11 19 10 3 9 6 -4 11 -11 5 -15 3 -10 -5
4 -7 3 -8 -4 -4 -9 5 -8 13 3 30 8 12 12 26 8 29 -3 4 0 7 7 7 7 0 10 3 7 7
-4 3 -3 11 1 18 4 6 -1 2 -10 -8 -10 -11 -15 -23 -12 -28 3 -5 0 -9 -6 -9 -6
0 -8 -4 -5 -10 3 -5 2 -10 -3 -10 -6 0 -13 7 -16 16 -4 9 -2 13 5 8 7 -4 10
-1 7 7 -3 8 -11 13 -17 11 -6 -1 -11 2 -11 8 0 14 13 13 28 -2 9 -9 12 -9 12
0 0 6 -8 16 -17 21 -11 6 -13 11 -5 11 7 0 11 4 8 8 -3 5 1 9 9 9 8 0 15 -4
15 -9 0 -4 -5 -8 -11 -8 -5 0 -7 -5 -4 -11 5 -6 12 -4 20 8 7 10 10 20 7 23
-4 3 -8 11 -10 18 -2 10 4 12 20 7 l23 -6 -23 14 c-12 7 -19 17 -15 22 4 4 2
5 -4 1 -7 -4 -13 -3 -13 3 0 14 35 32 45 23 5 -4 5 -2 1 5 -4 7 -14 9 -24 6
-15 -6 -15 -5 -3 10 17 21 5 22 -15 2 -11 -11 -12 -15 -3 -15 7 0 10 -2 7 -5
-3 -3 -13 -2 -23 1 -15 6 -16 8 -1 16 18 10 22 29 5 26 -6 -2 -14 4 -16 12 -3
9 -1 11 4 5 4 -5 13 -11 19 -12 15 -3 26 35 13 43 -5 3 -8 2 -7 -3 2 -4 -1
-10 -7 -13 -6 -3 -10 11 -10 32 -1 30 2 35 15 29 8 -5 21 -6 29 -3 9 3 11 0 6
-8 -6 -9 -4 -11 5 -5 10 6 9 11 -5 22 -11 7 -15 13 -11 13 5 0 3 7 -4 15 -10
12 -10 18 0 30 7 8 9 15 5 15 -4 0 -2 7 5 16 11 12 11 15 1 12 -8 -2 -15 5
-16 15 -2 9 0 17 5 17 4 0 10 7 14 15 3 8 2 14 -2 12 -4 -1 -7 3 -7 8 0 6 5 9
10 7 6 -2 4 2 -2 9 -10 9 -10 16 -1 26 6 8 7 13 2 11 -5 -2 -9 2 -9 7 0 6 4 9
9 7 5 -2 4 4 -4 12 -10 13 -10 16 1 17 10 0 11 2 1 6 -6 2 -10 9 -6 14 3 5 0
9 -6 9 -6 0 -8 5 -5 10 5 8 12 7 23 -2 16 -12 16 -11 1 7 -9 11 -14 26 -11 34
3 10 0 12 -11 8 -9 -3 -19 -2 -22 3 -3 5 -13 7 -23 4 -13 -5 -14 -4 -4 4 20
13 19 17 -3 43 l-20 24 21 -18 c11 -9 23 -14 26 -11 3 3 9 0 14 -7 4 -7 3 -10
-4 -5 -6 3 -9 0 -8 -9 4 -25 11 -25 23 1 6 13 7 22 3 19 -5 -3 -8 4 -7 15 1
11 5 20 10 20 5 0 3 8 -4 17 -12 15 -12 16 6 10 19 -7 19 -6 3 7 -24 18 -23
25 5 36 18 7 18 9 4 9 -10 1 -15 6 -12 11 3 6 0 10 -7 10 -9 0 -9 3 2 10 8 5
10 10 4 10 -6 0 -11 7 -11 15 0 10 6 14 16 10 13 -4 12 -2 -1 9 -17 13 -26 32
-10 23 4 -3 8 6 8 19 2 22 -2 26 -23 23 -3 0 -10 7 -15 16 -8 13 -13 14 -24 4
-12 -10 -13 -9 -8 5 7 17 16 20 28 9 3 -4 17 -8 29 -10 16 -2 10 4 -18 21 -22
13 -42 23 -45 21 -3 -2 -6 5 -6 15 0 10 3 18 6 18 20 -2 30 3 25 12 -4 6 -11
7 -17 4 -6 -4 -8 -2 -5 4 6 9 15 9 46 3 2 -1 -2 -7 -8 -14 -6 -8 -7 -18 -3
-22 4 -5 -1 -5 -10 -2 -10 4 -18 2 -18 -2 0 -11 27 -22 33 -13 2 4 2 0 0 -8
-2 -8 -1 -11 3 -7 4 4 13 2 20 -4 8 -7 14 -7 19 1 4 6 1 9 -6 8 -6 -2 -14 3
-16 10 -3 6 0 12 6 12 7 0 4 11 -6 27 -21 32 -26 56 -10 50 7 -2 12 -9 12 -15
0 -5 3 -13 7 -17 12 -12 3 19 -16 54 -15 28 -15 35 -4 42 7 5 8 9 2 9 -5 0
-14 -4 -20 -10 -6 -6 -15 -5 -24 1 -13 9 -12 10 3 5 9 -3 18 0 19 7 0 7 2 17
2 22 1 6 6 17 11 25 8 13 7 13 -8 1 -9 -7 -15 -17 -12 -21 6 -10 -14 -24 -22
-16 -3 3 0 12 6 20 10 12 9 20 -4 40 -10 14 -22 23 -28 19 -6 -3 -7 -1 -3 6 6
9 11 9 21 1 8 -7 15 -7 19 -1 3 5 1 11 -6 13 -7 3 -5 7 6 11 10 4 15 3 11 -3
-11 -17 0 -11 18 11 18 20 18 21 -5 13 -20 -6 -21 -5 -9 10 7 9 10 16 5 16 -4
0 1 7 12 15 18 14 18 15 0 8 -14 -4 -17 -2 -14 8 3 8 12 13 19 11 8 -2 3 8 -9
21 -19 21 -22 29 -13 45 18 34 12 39 -8 7 -10 -16 -14 -32 -10 -35 5 -3 -1
-11 -12 -19 -17 -10 -20 -10 -13 1 12 18 12 51 -1 61 -5 5 0 5 13 2 21 -6 29
7 23 39 -1 5 5 6 13 3 9 -4 18 -2 21 4 4 5 3 9 -2 8 -22 -4 -30 3 -29 26 1 13
5 27 9 31 4 4 2 13 -4 21 -9 10 -8 17 2 30 10 11 10 14 2 9 -7 -4 -13 -2 -13
3 0 6 -5 11 -11 11 -8 0 -7 -6 2 -17 13 -15 12 -15 -12 0 -14 10 -28 15 -31
11 -3 -3 -9 -1 -12 5 -4 6 4 8 20 5 22 -4 25 -2 16 9 -9 10 -7 16 8 27 10 7
17 18 14 22 -3 5 -12 4 -20 -3 -10 -8 -14 -8 -14 0 0 6 5 11 11 11 6 0 9 6 6
13 -2 6 -10 11 -16 9 -7 -1 -10 2 -6 8 5 8 11 8 20 0 8 -7 15 -7 19 -1 3 5 0
12 -6 14 -9 4 -10 6 -1 6 16 1 26 -16 13 -24 -5 -3 -10 -11 -10 -16 0 -6 4 -8
8 -5 5 3 8 -7 7 -22 -1 -15 -7 -26 -13 -24 -7 1 -12 -2 -12 -8 0 -17 29 -11
39 8 7 13 6 23 -2 32 -10 10 -8 12 8 6 19 -6 19 -5 3 8 -21 15 -23 27 -5 24 6
-2 12 7 12 18 1 12 7 29 14 38 9 10 10 16 2 16 -6 0 -11 -6 -11 -12 0 -10 -2
-10 -9 0 -7 11 -9 11 -14 -1 -3 -8 -1 -19 5 -25 6 -6 8 -16 5 -24 -4 -9 -8 -6
-12 9 -5 14 -13 20 -23 16 -15 -4 -15 -3 -2 7 13 10 11 11 -8 7 -13 -3 -20 -1
-16 5 3 5 15 7 26 5 13 -4 18 -1 15 8 -3 7 -1 17 5 23 8 8 5 14 -13 21 l-24
10 25 0 c33 -1 58 5 67 16 4 4 3 5 -4 1 -8 -4 -11 1 -10 14 1 11 6 20 11 20 5
0 6 3 3 7 -4 3 -2 12 5 20 9 11 8 18 -4 29 -14 14 -15 13 -13 -10 2 -14 0 -26
-5 -26 -4 0 -7 -8 -7 -17 0 -34 -3 -39 -25 -40 -13 0 -17 1 -10 4 6 3 10 9 7
14 -4 5 2 6 12 2 15 -6 16 -4 5 9 -9 11 -10 18 -2 23 5 3 10 11 10 17 0 6 -7
5 -17 -3 -16 -13 -17 -12 -4 3 7 10 17 15 22 12 5 -3 9 0 9 5 0 6 -7 11 -17
11 -27 0 -6 12 27 16 17 2 28 0 25 -5 -3 -5 -1 -12 4 -15 12 -8 8 37 -4 46 -5
4 -14 8 -20 8 -5 0 -3 -5 5 -11 12 -8 12 -10 1 -7 -8 2 -15 11 -17 19 -1 7 -5
23 -8 34 -5 15 -4 15 5 -2 7 -13 16 -23 21 -23 11 0 10 14 -2 26 -7 7 -6 11 4
11 8 0 12 -5 9 -10 -4 -6 -1 -7 6 -2 10 6 11 3 3 -12 -9 -16 -7 -19 11 -20 16
-2 18 0 8 6 -7 5 -11 13 -7 19 3 6 2 14 -4 17 -8 5 -7 12 2 23 12 15 11 16 -5
3 -14 -11 -21 -11 -29 -3 -7 7 -8 12 -4 12 5 0 2 8 -5 18 -13 15 -12 16 3 3
10 -7 15 -17 12 -22 -3 -5 -1 -9 4 -9 16 0 22 13 12 26 -8 8 -6 17 5 28 19 19
37 12 28 -10z m-87 -119 c1 -8 -1 -17 -5 -19 -4 -3 -7 6 -7 19 0 25 8 25 12 0z
m-32 -13 c3 -5 -1 -9 -9 -9 -8 0 -12 4 -9 9 3 4 7 8 9 8 2 0 6 -4 9 -8z m-11
-77 c-3 -9 -8 -14 -10 -11 -3 3 -2 9 2 15 9 16 15 13 8 -4z m-23 -321 c0 5 9
1 20 -9 20 -18 18 -35 -3 -35 -9 0 -9 2 -1 8 9 5 8 10 -2 20 -7 7 -17 12 -21
11 -4 0 -9 5 -11 13 -2 9 0 8 7 -2 6 -8 11 -11 11 -6z m-5 -35 c-4 -6 3 -13
15 -16 16 -4 18 -8 8 -14 -19 -12 -28 -11 -25 4 1 7 -7 12 -20 11 -13 -1 -20
3 -17 7 3 5 9 7 14 4 5 -3 11 -1 15 5 3 5 8 10 11 10 3 0 2 -5 -1 -11z m-44
-46 c13 -16 12 -17 -3 -4 -10 7 -18 15 -18 17 0 8 8 3 21 -13z m76 -6 c0 -7
-9 -14 -20 -14 -19 -2 -19 -2 -1 12 11 8 19 15 20 15 0 0 1 -6 1 -13z m-27
-37 c0 -5 -8 -10 -17 -10 -15 0 -16 2 -3 10 19 12 20 12 20 0z m30 6 c0 -3 -4
-8 -10 -11 -5 -3 -10 -1 -10 4 0 6 5 11 10 11 6 0 10 -2 10 -4z m-40 -67 c0
-5 -5 -9 -12 -9 -6 0 -8 3 -5 7 4 3 1 13 -6 22 -11 14 -10 14 6 2 9 -7 17 -17
17 -22z m51 -43 c-6 -7 -9 -22 -6 -34 2 -12 -1 -24 -6 -27 -5 -4 -7 -11 -4
-16 4 -5 2 -9 -3 -9 -5 0 -9 11 -9 25 0 14 5 25 11 25 6 0 4 4 -4 9 -8 6 -18
7 -22 5 -18 -11 -7 9 14 26 25 19 46 16 29 -4z m-133 -61 c-3 -3 -9 2 -12 12
-6 14 -5 15 5 6 7 -7 10 -15 7 -18z m57 -34 c3 -5 2 -12 -3 -15 -5 -3 -9 1 -9
9 0 17 3 19 12 6z m41 -80 c-9 -14 -26 -14 -26 0 0 5 5 7 12 3 8 -5 9 -1 4 12
-5 14 -4 16 5 7 6 -6 8 -16 5 -22z m-22 -47 c3 -8 2 -12 -4 -9 -6 3 -10 10
-10 16 0 14 7 11 14 -7z m23 -36 c-3 -8 -6 -5 -6 6 -1 11 2 17 5 13 3 -3 4
-12 1 -19z m-20 -3 c0 -8 -4 -12 -9 -9 -5 3 -6 10 -3 15 9 13 12 11 12 -6z
m53 5 c0 13 1 13 10 0 5 -9 5 -19 0 -26 -6 -6 -7 -14 -3 -17 3 -4 1 -7 -5 -7
-7 0 -12 5 -12 11 0 5 -6 7 -12 3 -10 -5 -10 -4 -1 6 6 7 9 20 6 29 -4 14 -3
14 6 1 9 -13 11 -13 11 0z m-36 -46 c3 -8 2 -12 -4 -9 -6 3 -10 10 -10 16 0
14 7 11 14 -7z m66 -54 c0 -5 -2 -10 -4 -10 -3 0 -8 5 -11 10 -3 6 -1 10 4 10
6 0 11 -4 11 -10z m-16 -104 c9 12 15 14 20 6 4 -7 3 -12 -3 -12 -5 0 -8 -12
-6 -27 l3 -26 -19 24 c-10 13 -18 33 -17 44 1 16 2 16 5 -3 4 -22 6 -22 17 -6z
m-25 -30 c9 -10 8 -15 -2 -19 -8 -3 -13 3 -13 14 0 23 0 23 15 5z m26 -34 c6
-4 10 -14 10 -22 -1 -8 2 -22 6 -30 5 -9 1 -22 -8 -32 -9 -10 -12 -18 -6 -18
5 0 9 -13 9 -29 0 -27 -4 -30 -34 -22 -1 1 2 10 9 22 7 15 8 24 0 32 -7 7 -7
16 0 29 12 22 2 23 -22 2 -11 -10 -19 -12 -24 -4 -3 6 -3 9 2 8 12 -4 47 25
51 41 2 8 -3 18 -10 22 -7 5 -8 9 -3 9 6 0 15 -4 20 -8z m-25 -24 c0 -6 -6 -5
-15 2 -8 7 -15 14 -15 16 0 2 7 1 15 -2 8 -4 15 -11 15 -16z m-3 -95 c0 -9 -4
-10 -14 -2 -7 6 -13 12 -13 14 0 1 6 2 13 2 8 0 14 -6 14 -14z m48 -133 c-1
-8 -8 -14 -14 -12 -15 3 -14 -7 3 -24 8 -7 13 -21 12 -31 -3 -22 -26 -30 -26
-9 0 9 6 16 13 16 8 0 9 3 1 8 -6 4 -17 18 -24 31 -10 19 -10 22 1 16 8 -6 11
-4 7 6 -4 10 1 15 12 15 10 0 17 -7 15 -16z m-65 -60 c0 -5 -5 -10 -11 -10 -5
0 -7 5 -4 10 3 6 8 10 11 10 2 0 4 -4 4 -10z m23 -5 c-3 -9 -8 -14 -10 -11 -3
3 -2 9 2 15 9 16 15 13 8 -4z m32 -40 c15 0 12 -38 -4 -43 -10 -3 -12 0 -8 12
4 10 1 19 -8 22 -8 4 -15 10 -15 16 0 5 6 6 13 1 6 -4 17 -8 22 -8z m7 -61 c5
-3 4 -11 -1 -18 -6 -7 -9 -15 -6 -17 2 -3 -5 -10 -15 -17 -12 -7 -20 -8 -20
-2 0 5 5 10 12 10 6 0 8 3 5 7 -4 3 1 12 11 19 16 12 16 13 -3 15 -11 1 -26 1
-32 0 -7 -1 -13 3 -13 8 0 9 45 6 62 -5z m-49 -29 c-3 -9 -8 -14 -10 -11 -3 3
-2 9 2 15 9 16 15 13 8 -4z m52 -53 c-2 -9 -4 -19 -4 -21 -1 -2 -8 2 -16 9
-12 10 -13 16 -4 26 14 17 28 9 24 -14z m-41 -7 c16 -25 16 -25 -2 -14 -10 6
-19 18 -19 25 0 19 2 18 21 -11z m42 -58 c1 -9 -2 -15 -7 -11 -5 3 -6 10 -3
16 4 6 -1 8 -16 3 -16 -5 -20 -4 -15 4 10 17 38 9 41 -12z m-46 -28 c0 -4 -9
-7 -19 -6 -11 0 -18 4 -16 7 6 9 35 8 35 -1z m-15 -57 c-17 -15 -18 -15 -6 0
7 9 9 23 5 30 -6 10 -4 11 7 0 11 -10 10 -15 -6 -30z m-25 2 c0 -8 -19 -13
-24 -6 -3 5 1 9 9 9 8 0 15 -2 15 -3z m35 -33 c3 -5 2 -12 -3 -15 -5 -3 -9 1
-9 9 0 17 3 19 12 6z m12 -47 c-3 -3 -12 -4 -19 -1 -8 3 -5 6 6 6 11 1 17 -2
13 -5z m-7 -19 c0 -7 -30 -13 -34 -7 -3 4 4 9 15 9 10 1 19 0 19 -2z m31 -12
c10 -11 10 -14 2 -9 -7 4 -13 3 -13 -3 0 -5 6 -12 13 -14 6 -3 8 -6 2 -6 -5 0
-17 4 -25 10 -11 8 -12 12 -2 16 6 2 10 9 6 14 -9 15 3 10 17 -8z m-5 -205
c-6 -10 -15 -18 -20 -18 -6 0 -5 5 2 12 7 7 12 17 12 22 0 6 -5 5 -12 -2 -7
-7 -17 -12 -22 -12 -6 0 -3 5 6 11 11 6 15 16 11 26 -5 13 -3 13 13 -3 16 -15
18 -23 10 -36z m-26 -77 c0 -14 -29 -21 -36 -9 -4 6 -3 8 4 4 6 -3 13 -2 17 4
8 12 15 13 15 1z m-35 -71 c-3 -5 -12 -10 -18 -10 -7 0 -6 4 3 10 19 12 23 12
15 0z m12230 1 c3 -5 2 -12 -3 -15 -5 -3 -9 1 -9 9 0 17 3 19 12 6z m-12173
-43 c-14 -14 -16 -32 -3 -23 5 3 12 1 15 -4 4 -5 2 -12 -3 -15 -5 -4 -12 -2
-16 4 -4 6 -11 8 -16 5 -12 -8 2 28 15 37 17 12 21 9 8 -4z m12175 -84 c-3 -3
-12 -4 -19 -1 -8 3 -5 6 6 6 11 1 17 -2 13 -5z m2 -54 c-6 -16 -13 -30 -15
-30 -8 0 1 45 11 52 15 11 15 11 4 -22z m46 -40 c3 -6 -1 -7 -9 -4 -18 7 -21
14 -7 14 6 0 13 -4 16 -10z m-58 -7 c-4 -3 -2 -12 4 -20 6 -7 8 -13 3 -13 -4
0 1 -7 12 -16 16 -13 16 -15 2 -10 -12 3 -18 0 -18 -10 0 -9 5 -12 12 -8 7 4
8 3 4 -4 -4 -7 -2 -12 5 -12 7 0 4 -6 -7 -14 -13 -10 -14 -14 -4 -13 8 2 20 6
26 9 6 4 11 1 11 -7 0 -8 -4 -12 -8 -9 -4 2 -10 0 -14 -6 -4 -6 -11 -8 -16 -5
-5 3 -6 -1 -3 -10 5 -13 9 -13 23 -3 9 7 13 8 9 4 -4 -5 0 -15 10 -23 9 -8 11
-12 5 -8 -7 3 -23 8 -35 10 -22 4 -22 4 -4 -10 11 -8 23 -15 28 -15 4 0 8 -4
8 -10 0 -5 -7 -7 -15 -4 -8 4 -17 -1 -21 -9 -3 -9 -11 -14 -18 -11 -12 5 -14
172 -2 192 3 6 2 13 -4 17 -10 6 -5 25 7 25 4 0 3 -3 0 -7z m43 -9 c0 -8 -19
-13 -24 -6 -3 5 1 9 9 9 8 0 15 -2 15 -3z m25 -44 c3 -5 1 -10 -4 -10 -6 0
-11 5 -11 10 0 6 2 10 4 10 3 0 8 -4 11 -10z m-12281 -42 c-3 -4 -11 -5 -19
-1 -21 7 -19 12 4 10 11 0 18 -5 15 -9z m12277 -51 c-10 -9 -11 -8 -5 6 3 10
9 15 12 12 3 -3 0 -11 -7 -18z m-12296 -17 c10 -11 16 -20 13 -20 -3 0 -13 9
-23 20 -10 11 -16 20 -13 20 3 0 13 -9 23 -20z m71 -28 c-4 -3 -15 -7 -26 -9
-13 -2 -18 3 -17 16 1 11 5 17 9 15 5 -3 5 -10 2 -16 -4 -7 -2 -8 5 -4 7 5 9
17 5 29 -6 21 -5 21 11 -1 9 -13 14 -26 11 -30z m-82 -20 c3 -5 -1 -9 -9 -9
-8 0 -12 4 -9 9 3 4 7 8 9 8 2 0 6 -4 9 -8z m12333 -17 c0 -8 -4 -12 -9 -9 -5
3 -6 10 -3 15 9 13 12 11 12 -6z m-39 -12 c-5 -7 -14 -10 -19 -7 -5 3 -9 0 -9
-6 0 -6 -4 -8 -10 -5 -6 3 -7 -1 -3 -10 5 -13 7 -14 14 -3 7 10 9 10 9 1 0 -7
5 -12 11 -10 6 1 14 -5 16 -13 4 -12 3 -12 -5 -2 -11 16 -22 17 -31 4 -3 -5
-15 -6 -26 -1 -11 4 -14 8 -8 8 9 1 10 8 3 27 -9 23 -8 25 10 19 11 -3 20 -2
20 4 0 5 9 9 19 8 15 -1 17 -4 9 -14z m82 13 c0 -3 -4 -8 -10 -11 -5 -3 -10
-1 -10 4 0 6 5 11 10 11 6 0 10 -2 10 -4z m-12370 -22 c0 -8 -19 -13 -24 -6
-3 5 1 9 9 9 8 0 15 -2 15 -3z m12321 -11 c12 -16 12 -17 -2 -6 -9 7 -20 9
-24 5 -5 -4 -5 -1 -1 6 9 16 11 15 27 -5z m-12327 -31 c3 -5 -1 -9 -9 -9 -8 0
-12 4 -9 9 3 4 7 8 9 8 2 0 6 -4 9 -8z m56 -6 c0 -3 -4 -8 -10 -11 -5 -3 -10
-1 -10 4 0 6 5 11 10 11 6 0 10 -2 10 -4z m12198 -36 c-1 -43 -15 -47 -20 -5
-3 23 0 35 8 35 8 0 12 -13 12 -30z m42 11 c0 -4 -5 -12 -12 -19 -7 -7 -8 -12
-3 -12 4 0 0 -9 -10 -20 -19 -21 -7 -28 13 -8 9 9 12 9 12 0 0 -7 -5 -12 -11
-12 -5 0 -8 -4 -4 -10 3 -5 13 -7 23 -4 14 5 14 4 2 -4 -8 -6 -19 -7 -25 -3
-5 4 -19 11 -29 15 -14 5 -16 3 -9 -6 6 -7 9 -21 8 -31 -2 -9 1 -15 6 -11 5 3
7 10 4 15 -4 5 -2 9 4 9 18 0 21 -18 5 -24 -15 -6 -15 -8 1 -26 10 -11 22 -17
28 -13 6 3 7 1 3 -5 -5 -9 -12 -8 -26 1 -11 6 -20 15 -20 19 0 5 -4 8 -10 8
-17 0 2 -30 27 -44 22 -11 23 -14 9 -19 -10 -4 -15 -3 -11 3 3 6 2 10 -3 10
-16 0 -21 -12 -12 -34 6 -18 4 -22 -11 -22 -12 0 -15 4 -9 10 6 6 5 17 -2 30
-8 15 -8 21 1 24 6 2 9 8 5 13 -3 5 -6 32 -8 59 -2 42 1 51 21 61 17 9 20 16
12 25 -7 8 -7 14 1 19 6 3 8 11 5 16 -3 5 1 6 9 3 9 -3 16 -9 16 -13z m-12222
-29 c13 11 14 10 10 -2 -2 -8 -11 -15 -19 -15 -8 0 -20 -4 -26 -8 -8 -5 -13
-4 -13 2 0 6 5 11 10 11 6 0 3 12 -6 28 l-16 27 22 -28 c19 -23 25 -26 38 -15z
m12252 -2 c-18 -12 -30 -13 -30 -2 0 4 10 9 22 9 18 2 20 0 8 -7z m-12306 -38
c3 -5 -1 -9 -9 -9 -8 0 -12 4 -9 9 3 4 7 8 9 8 2 0 6 -4 9 -8z m49 -7 c4 -8 2
-17 -4 -21 -6 -3 -8 -12 -5 -20 7 -19 -14 -30 -25 -13 -12 19 -11 25 6 42 8 8
11 17 8 21 -4 3 -2 6 4 6 6 0 13 -7 16 -15z m12238 -48 c-10 -9 -11 -8 -5 6 3
10 9 15 12 12 3 -3 0 -11 -7 -18z m-12294 -42 c0 -8 -4 -12 -9 -9 -5 3 -6 10
-3 15 9 13 12 11 12 -6z m53 -35 c8 -5 11 -10 7 -10 -5 0 -5 -6 0 -12 15 -25
12 -44 -7 -44 -17 0 -18 2 -4 17 9 10 11 19 6 23 -6 3 -12 0 -15 -6 -4 -10 -7
-10 -18 0 -12 11 -12 13 0 10 7 -2 16 3 19 11 3 8 0 11 -7 7 -6 -4 -11 -2 -11
3 0 13 10 14 30 1z m-96 -36 c3 -8 2 -12 -4 -9 -6 3 -10 10 -10 16 0 14 7 11
14 -7z m59 -19 c4 -8 3 -16 -1 -19 -4 -3 -9 4 -9 15 -2 23 3 25 10 4z m12221
-18 c-3 -8 2 -14 11 -14 10 0 14 6 10 16 -5 12 -3 13 6 4 12 -12 3 -37 -11
-28 -5 3 -13 -2 -18 -11 -7 -12 -9 -9 -10 15 0 17 3 31 8 31 5 0 7 -6 4 -13z
m61 -17 c3 -5 1 -10 -4 -10 -6 0 -11 5 -11 10 0 6 2 10 4 10 3 0 8 -4 11 -10z
m-57 -65 c0 -14 -4 -25 -7 -25 -4 0 -7 11 -7 25 0 14 3 25 7 25 3 0 7 -11 7
-25z m22 -35 c0 -5 -5 -10 -11 -10 -5 0 -7 5 -4 10 3 6 8 10 11 10 2 0 4 -4 4
-10z m-26 -26 c3 -8 2 -12 -4 -9 -6 3 -10 10 -10 16 0 14 7 11 14 -7z m-12234
-14 c0 -5 -5 -10 -11 -10 -5 0 -7 5 -4 10 3 6 8 10 11 10 2 0 4 -4 4 -10z m40
-12 c0 -6 -6 -5 -15 2 -8 7 -15 14 -15 16 0 2 7 1 15 -2 8 -4 15 -11 15 -16z
m12200 -2 c0 -2 -7 -7 -16 -10 -8 -3 -12 -2 -9 4 6 10 25 14 25 6z m-12227
-41 c-3 -9 -8 -14 -10 -11 -3 3 -2 9 2 15 9 16 15 13 8 -4z m12220 -30 c4 -8
3 -16 -1 -19 -4 -3 -9 4 -9 15 -2 23 3 25 10 4z m-12188 -49 c24 -37 26 -62 5
-62 -10 0 -17 3 -14 7 2 4 -2 10 -8 12 -8 3 -6 6 5 6 9 1 17 5 17 11 0 6 -9 6
-26 0 -16 -7 -23 -7 -19 0 3 6 13 10 21 10 17 0 18 12 2 28 -7 7 -9 12 -5 12
3 0 14 -11 22 -24z m12211 -8 c4 -7 4 -10 -1 -6 -4 4 -15 2 -24 -5 -14 -11
-14 -10 -2 6 16 20 18 21 27 5z m-12279 -247 c0 -11 -5 -18 -9 -15 -4 3 -5 11
-1 19 7 21 12 19 10 -4z m23 -31 c0 -5 -5 -10 -11 -10 -5 0 -7 5 -4 10 3 6 8
10 11 10 2 0 4 -4 4 -10z m-26 -146 c3 -8 2 -12 -4 -9 -6 3 -10 10 -10 16 0
14 7 11 14 -7z m16 -89 c0 -5 -5 -3 -10 5 -5 8 -10 20 -10 25 0 6 5 3 10 -5 5
-8 10 -19 10 -25z m12244 9 c3 -8 2 -12 -4 -9 -6 3 -10 10 -10 16 0 14 7 11
14 -7z m-12254 -69 c14 -19 14 -19 -2 -6 -10 7 -18 18 -18 24 0 6 1 8 3 6 1
-2 9 -13 17 -24z m46 -19 c1 -10 -3 -13 -14 -8 -13 4 -15 3 -6 -9 16 -22 11
-43 -11 -46 -19 -3 -19 -3 -1 5 14 6 16 11 8 16 -7 4 -10 12 -7 17 4 5 0 9 -7
9 -9 0 -9 3 2 10 13 8 13 13 2 31 -13 21 -13 21 9 5 13 -8 24 -22 25 -30z
m-42 -142 c3 -8 2 -12 -4 -9 -6 3 -10 10 -10 16 0 14 7 11 14 -7z m29 -37 c-2
-4 0 -14 7 -22 8 -9 8 -15 0 -20 -7 -4 -8 -11 -1 -18 7 -9 2 -12 -16 -14 -19
-1 -22 1 -12 8 12 7 12 12 0 31 -10 18 -10 20 0 11 20 -20 31 -15 17 7 -7 11
-19 21 -28 24 -8 2 -3 3 12 3 15 -1 24 -5 21 -10z m-33 -42 c14 -19 14 -19 -2
-6 -10 7 -18 18 -18 24 0 6 1 8 3 6 1 -2 9 -13 17 -24z m-6 -51 c3 -8 2 -12
-4 -9 -6 3 -10 10 -10 16 0 14 7 11 14 -7z m17 -207 c-10 -9 -11 -8 -5 6 3 10
9 15 12 12 3 -3 0 -11 -7 -18z m14 -35 c-3 -3 -11 0 -18 7 -9 10 -8 11 6 5 10
-3 15 -9 12 -12z m24 -21 c11 -7 11 -10 0 -17 -19 -11 -49 -13 -43 -2 4 5 12
7 20 4 8 -3 14 -1 14 3 0 5 -6 12 -12 14 -7 3 -8 6 -3 6 6 0 16 -3 24 -8z
m-25 -50 c-8 -8 -34 -10 -38 -2 -3 4 6 7 19 7 14 0 22 -2 19 -5z m-46 -206
c-3 -3 -9 2 -12 12 -6 14 -5 15 5 6 7 -7 10 -15 7 -18z m42 11 c0 -3 -4 -8
-10 -11 -5 -3 -10 -1 -10 4 0 6 5 11 10 11 6 0 10 -2 10 -4z m40 -67 c0 -4 -9
-9 -20 -12 -20 -5 -23 8 -5 29 10 11 24 1 25 -17z m-36 -38 c-2 -3 -12 3 -22
13 -16 17 -16 18 5 5 12 -7 20 -15 17 -18z m-20 -19 c3 -5 -1 -9 -9 -9 -8 0
-12 4 -9 9 3 4 7 8 9 8 2 0 6 -4 9 -8z m7 -49 c13 -16 12 -17 -3 -4 -10 7 -18
15 -18 17 0 8 8 3 21 -13z m-14 -45 c2 -17 0 -19 -7 -8 -5 8 -6 18 -4 22 8 12
10 10 11 -14z m33 -28 c0 -5 -2 -10 -4 -10 -3 0 -8 5 -11 10 -3 6 -1 10 4 10
6 0 11 -4 11 -10z m1 -47 c-12 -20 -14 -14 -5 12 4 9 9 14 11 11 3 -2 0 -13
-6 -23z m4 -33 c3 -5 1 -10 -4 -10 -6 0 -11 5 -11 10 0 6 2 10 4 10 3 0 8 -4
11 -10z m35 -15 c11 -13 8 -15 -16 -14 -17 1 -22 3 -11 6 9 2 15 9 12 14 -10
15 1 10 15 -6z m-50 -65 c0 -5 -5 -10 -11 -10 -5 0 -7 5 -4 10 3 6 8 10 11 10
2 0 4 -4 4 -10z m10 -56 c0 -8 -19 -13 -24 -6 -3 5 1 9 9 9 8 0 15 -2 15 -3z
m39 -38 c-3 -3 -11 5 -18 17 -13 21 -12 21 5 5 10 -10 16 -20 13 -22z m77
-109 c-3 -17 -25 -54 -26 -41 0 5 5 15 12 22 17 17 -3 15 -32 -4 l-25 -16 23
21 c13 11 23 22 22 25 -2 25 1 28 14 17 8 -7 13 -17 12 -24z m-86 -37 c0 -5
-2 -10 -4 -10 -3 0 -8 5 -11 10 -3 6 -1 10 4 10 6 0 11 -4 11 -10z m112 -8
c-7 -2 -12 -8 -12 -13 0 -6 5 -7 11 -3 7 4 7 -2 -1 -17 -18 -34 -21 -36 -18
-8 2 18 -1 23 -15 21 -17 -3 -17 -2 -1 17 10 11 24 17 32 13 11 -4 12 -7 4
-10z m-62 -8 c0 -8 -19 -13 -24 -6 -3 5 1 9 9 9 8 0 15 -2 15 -3z"/>
<path d="M14910 13043 c0 -3 11 -21 25 -38 13 -18 21 -36 17 -40 -4 -5 -2 -5
5 -1 6 3 15 2 18 -4 4 -6 3 -10 -2 -9 -22 4 -25 -2 -7 -17 18 -15 18 -15 -3
-5 -27 14 -36 14 -28 1 3 -6 -1 -7 -9 -4 -9 3 -16 2 -16 -3 0 -5 14 -10 30
-11 58 -3 65 -5 77 -14 12 -9 12 -53 0 -65 -15 -14 -6 -25 10 -12 9 8 14 9 10
2 -4 -6 -4 -13 0 -16 5 -2 3 -2 -4 -1 -6 2 -17 -5 -25 -14 -11 -13 -11 -14 1
-7 10 5 12 4 7 -3 -11 -18 -29 -14 -22 4 6 15 4 15 -11 3 -14 -11 -14 -8 2 10
11 14 15 22 9 18 -6 -3 -11 0 -12 8 -1 8 -3 22 -4 30 -1 8 -6 11 -11 8 -6 -3
-7 -1 -3 6 4 6 12 9 17 6 5 -4 9 -1 9 5 0 7 -7 9 -16 6 -10 -4 -13 -2 -8 6 5
7 3 8 -6 3 -9 -6 -11 -4 -5 5 4 7 -6 2 -23 -10 -24 -18 -30 -29 -27 -51 2 -16
-1 -29 -7 -29 -6 0 -3 -8 6 -19 15 -17 15 -19 1 -25 -9 -3 -13 -10 -10 -16 3
-6 -3 -22 -15 -37 -16 -21 -18 -29 -8 -31 24 -8 45 -44 42 -73 -3 -23 0 -27
17 -24 14 3 19 0 16 -9 -3 -8 0 -19 6 -25 6 -6 7 -11 2 -11 -4 0 -1 -8 9 -19
15 -16 15 -19 1 -31 -8 -7 -15 -9 -15 -5 0 4 -9 -3 -19 -16 -17 -21 -17 -25
-4 -32 17 -10 33 1 16 11 -9 5 -6 12 8 21 16 9 19 9 14 0 -6 -8 -4 -10 5 -4 8
5 11 4 6 -3 -8 -14 18 -9 38 7 12 10 16 10 16 1 0 -7 6 -10 14 -7 10 4 14 0
11 -14 -2 -10 0 -19 4 -19 4 0 8 -7 8 -15 0 -8 -3 -13 -5 -10 -7 6 -32 -15
-32 -27 0 -5 5 -6 12 -2 7 4 8 3 4 -5 -4 -6 -12 -9 -17 -6 -5 4 -9 2 -9 -4 0
-20 19 -21 30 -1 6 11 7 20 3 20 -4 0 2 6 12 14 20 14 28 43 17 60 -10 17 -11
36 -2 36 5 0 12 9 15 20 3 11 11 20 16 20 6 0 8 -4 5 -9 -4 -5 -3 -11 1 -14 5
-2 2 -2 -4 -1 -16 4 -17 -12 -3 -21 6 -4 17 -2 25 5 12 10 11 14 -3 31 -19 22
-24 69 -8 69 6 0 3 5 -7 11 -13 7 -22 7 -31 0 -10 -9 -15 -8 -19 3 -4 9 8 25
30 42 l36 27 -37 19 c-29 15 -35 22 -27 32 6 7 8 16 4 19 -13 14 -21 6 -19
-16 2 -14 -2 -24 -10 -24 -15 0 -14 18 1 29 6 5 4 8 -5 8 -9 1 -6 6 9 14 l24
14 -22 7 c-23 7 -23 7 -2 21 20 14 20 15 1 34 -12 12 -18 30 -16 54 2 19 0 34
-3 32 -3 -2 -17 0 -30 5 -15 6 -21 14 -17 25 3 9 -5 26 -19 42 -14 15 -23 32
-21 39 3 6 -2 14 -10 17 -20 8 -24 8 -24 -1z m38 -166 c-1 -2 3 -11 10 -19 17
-22 23 -56 10 -64 -6 -4 -14 0 -19 7 -6 10 -8 8 -7 -8 1 -12 7 -19 15 -16 7 3
13 1 13 -4 0 -12 31 -13 45 -2 6 4 17 4 24 0 10 -7 10 -9 -2 -14 -21 -8 -15
-60 7 -63 25 -4 30 -11 20 -27 -5 -7 -2 -6 6 3 11 12 19 13 26 6 7 -7 2 -18
-18 -34 -23 -20 -26 -27 -17 -43 9 -17 13 -18 27 -7 12 10 14 10 8 1 -4 -8 -2
-13 6 -13 9 0 10 -3 2 -8 -6 -4 -10 -15 -8 -24 1 -10 -6 -28 -17 -41 -10 -14
-16 -27 -13 -30 3 -3 -1 -4 -10 -3 -8 1 -19 5 -22 9 -4 4 -13 2 -20 -4 -19
-15 -52 -3 -36 13 9 9 8 16 -5 30 -9 10 -13 18 -9 18 4 0 4 6 -1 13 -4 6 -8
19 -8 27 0 8 -6 14 -12 13 -7 -2 -13 2 -13 7 0 6 5 10 11 10 5 0 7 5 4 10 -4
6 -11 7 -17 4 -7 -5 -8 -2 -4 5 5 7 0 21 -10 32 -9 10 -13 19 -9 19 5 0 0 7
-11 15 -18 15 -18 15 0 8 14 -4 17 -3 12 6 -4 6 -2 18 4 26 7 8 9 15 5 15 -4
0 -2 6 4 14 8 10 9 16 1 21 -10 6 -7 45 5 65 3 5 1 10 -6 10 -7 0 -4 6 7 14
17 13 31 15 22 3z m130 -442 c-3 -3 -9 2 -12 12 -6 14 -5 15 5 6 7 -7 10 -15
7 -18z"/>
<path d="M14939 12878 c-15 -51 -18 -87 -8 -94 8 -4 9 -3 5 4 -11 18 3 35 18
23 9 -8 13 -7 13 4 0 8 -6 15 -14 15 -7 0 -13 5 -13 11 0 5 6 7 13 3 9 -6 9
-5 0 8 -7 8 -10 18 -6 21 3 4 3 7 0 7 -4 0 -7 -1 -8 -2z"/>
<path d="M14929 12764 c-1 -2 -2 -7 -3 -11 -1 -5 -4 -12 -7 -18 -12 -19 -3
-61 19 -93 13 -18 20 -32 16 -32 -3 0 -1 -7 6 -15 6 -8 9 -19 6 -24 -4 -5 -2
-12 4 -16 6 -4 8 -10 5 -15 -3 -4 2 -13 10 -20 11 -9 12 -16 5 -26 -12 -14 5
-15 27 -1 6 4 15 2 18 -3 5 -8 13 -6 26 6 10 9 16 21 13 25 -3 5 0 9 7 9 7 0
4 6 -7 14 -10 8 -16 18 -11 22 4 4 7 2 7 -4 0 -7 4 -12 8 -12 5 0 9 7 9 15 0
8 -4 12 -8 9 -5 -3 -14 4 -21 16 -16 26 -28 26 -23 -1 2 -12 0 -19 -7 -17 -18
6 -17 37 1 43 10 3 29 18 42 33 16 18 18 22 4 11 -11 -9 -26 -14 -33 -12 -10
4 -9 8 4 17 13 10 14 15 4 21 -9 5 -11 4 -6 -3 4 -7 3 -12 -2 -12 -11 0 -26
30 -23 43 1 5 -3 6 -8 3 -5 -3 -12 1 -15 10 -5 12 -2 15 11 10 10 -4 14 -4 10
0 -4 4 -1 14 6 23 10 14 10 14 -3 4 -12 -9 -55 -11 -55 -3 0 4 -35 8 -36 4z
m41 -14 c3 -1 9 -2 13 -1 5 1 6 -3 3 -8 -3 -5 4 -21 15 -35 11 -15 22 -33 23
-42 1 -9 9 -20 17 -25 12 -7 12 -9 -1 -10 -8 -1 -20 -1 -26 0 -8 1 -12 -39 -5
-56 1 -2 1 -6 0 -9 -1 -8 23 -24 36 -24 6 0 4 4 -4 9 -9 6 -10 11 -2 15 6 4 8
12 5 18 -4 7 -2 8 5 4 6 -4 9 -12 6 -17 -4 -5 -3 -15 2 -21 12 -21 12 -36 -2
-48 -10 -8 -15 -8 -20 0 -5 8 -11 7 -23 -2 -9 -7 -13 -8 -9 -2 4 7 0 17 -8 24
-8 7 -13 16 -10 20 3 5 1 12 -5 15 -7 4 -7 11 -2 18 18 24 22 46 7 40 -8 -3
-12 -10 -8 -16 4 -6 1 -7 -6 -3 -7 5 -10 10 -7 13 3 3 -4 20 -16 36 -24 33
-33 83 -17 93 5 3 7 9 4 14 -4 7 17 7 35 0z"/>
<path d="M14943 12738 c-16 -20 -9 -69 12 -85 11 -7 19 -16 18 -18 -9 -16 0
-17 12 -1 13 17 17 17 32 5 16 -12 17 -12 6 2 -7 9 -10 19 -6 23 4 4 -1 4 -12
0 -18 -7 -18 -6 -6 9 11 14 11 17 0 18 -8 1 -18 1 -22 0 -5 -1 -6 7 -3 17 8
25 -17 48 -31 30z m17 -33 c-12 -15 -4 -20 23 -16 4 0 7 -4 7 -10 0 -6 -9 -8
-22 -4 -21 5 -21 5 2 -9 14 -9 21 -15 15 -15 -22 -1 -39 19 -41 46 -2 35 5 48
19 34 7 -7 6 -15 -3 -26z"/>
<path d="M14986 12571 c-4 -5 -2 -12 3 -15 5 -4 12 -2 15 3 4 5 2 12 -3 15 -5
4 -12 2 -15 -3z"/>
<path d="M15003 12525 c7 -8 14 -9 18 -3 3 5 9 2 13 -8 7 -17 19 -13 22 9 1 7
-12 12 -31 13 -26 1 -31 -1 -22 -11z"/>
<path d="M14910 12968 c0 -4 6 -8 13 -8 8 0 7 -4 -3 -10 -8 -5 -10 -10 -5 -10
14 0 30 13 32 27 2 6 -6 11 -17 10 -11 -1 -20 -5 -20 -9z"/>
<path d="M14994 12891 c4 -7 3 -17 -3 -24 -11 -14 2 -43 16 -34 14 9 10 60 -6
65 -9 3 -11 0 -7 -7z"/>
<path d="M14960 12442 c6 -12 15 -20 19 -18 12 8 30 -39 24 -62 -2 -11 1 -23
7 -27 9 -5 10 -2 6 12 -4 13 1 30 15 47 21 26 21 28 3 42 -18 14 -18 14 1 8
16 -5 17 -4 6 4 -9 7 -21 7 -32 2 -9 -5 -19 -6 -23 -3 -3 3 -6 0 -6 -7 0 -9
-5 -7 -16 6 -14 18 -15 18 -4 -4z m54 -24 c-5 -8 -1 -9 11 -4 15 5 16 4 5 -9
-15 -18 -19 -16 -25 14 -2 12 0 19 6 16 5 -4 6 -11 3 -17z"/>
<path d="M14840 12960 c0 -5 5 -10 11 -10 5 0 7 5 4 10 -3 6 -8 10 -11 10 -2
0 -4 -4 -4 -10z"/>
<path d="M1944 9769 c-3 -6 -2 -15 3 -20 5 -5 9 -1 10 11 2 22 -2 25 -13 9z"/>
<path d="M1895 7680 c3 -5 -1 -10 -9 -10 -8 0 -18 -4 -21 -10 -4 -6 2 -7 16
-1 25 9 38 31 19 31 -6 0 -8 -4 -5 -10z"/>
<path d="M1870 7379 c0 -5 5 -7 10 -4 6 3 10 8 10 11 0 2 -4 4 -10 4 -5 0 -10
-5 -10 -11z"/>
<path d="M1870 7259 c0 -5 5 -7 10 -4 6 3 10 8 10 11 0 2 -4 4 -10 4 -5 0 -10
-5 -10 -11z"/>
<path d="M1855 7097 c-10 -8 -15 -19 -12 -25 8 -11 47 -4 47 9 0 5 -8 5 -17 2
-16 -6 -16 -5 -4 10 16 20 11 22 -14 4z"/>
<path d="M1884 7039 c-3 -6 -2 -15 3 -20 5 -5 9 -1 9 11 0 23 -2 24 -12 9z"/>
<path d="M1910 6159 c0 -5 5 -7 10 -4 6 3 10 8 10 11 0 2 -4 4 -10 4 -5 0 -10
-5 -10 -11z"/>
<path d="M1870 6082 c0 -4 9 -8 20 -9 11 -1 18 2 15 8 -7 11 -35 12 -35 1z"/>
<path d="M1913 6053 c4 -3 1 -13 -6 -22 -11 -14 -10 -14 5 -2 16 12 16 31 1
31 -4 0 -3 -3 0 -7z"/>
<path d="M1910 5790 c-9 -6 -10 -10 -3 -10 6 0 15 5 18 10 8 12 4 12 -15 0z"/>
<path d="M1873 5680 c2 -8 10 -15 17 -15 7 0 15 -6 18 -14 3 -9 0 -11 -8 -6
-9 5 -11 4 -6 -3 10 -16 14 -15 26 8 8 16 8 20 -2 18 -7 -2 -12 3 -10 10 1 6
-2 12 -8 12 -5 0 -10 -6 -10 -12 0 -9 -4 -8 -11 2 -9 13 -10 13 -6 0z"/>
<path d="M1914 5502 c3 -5 0 -13 -6 -15 -9 -4 -10 -6 -1 -6 17 -1 25 16 12 25
-7 4 -9 3 -5 -4z"/>
<path d="M1850 5384 c0 -17 17 -36 24 -26 3 5 -1 15 -9 22 -8 7 -15 9 -15 4z"/>
<path d="M1890 5320 c0 -5 5 -10 11 -10 5 0 7 5 4 10 -3 6 -8 10 -11 10 -2 0
-4 -4 -4 -10z"/>
<path d="M1870 5303 c0 -5 7 -18 15 -29 13 -18 14 -18 8 4 -5 22 -23 41 -23
25z"/>
<path d="M1845 5120 c-3 -5 0 -12 7 -16 6 -4 14 -2 16 4 2 7 9 9 15 5 7 -3 8
-2 4 2 -11 12 -36 15 -42 5z"/>
<path d="M1870 4880 c-8 -15 -8 -18 3 -14 8 3 14 11 14 19 0 20 -4 19 -17 -5z"/>
<path d="M1893 4721 c0 -11 5 -18 9 -15 4 3 5 11 1 19 -7 21 -12 19 -10 -4z"/>
<path d="M1845 4669 c-4 -5 -1 -17 6 -25 7 -9 15 -23 16 -33 8 -35 9 -41 16
-47 3 -4 4 4 2 17 -3 13 2 34 11 47 9 14 11 21 5 18 -6 -4 -11 -3 -11 1 0 15
-38 34 -45 22z m35 -24 c7 -8 9 -15 6 -15 -4 0 -14 7 -22 15 -9 8 -11 15 -6
15 5 0 15 -7 22 -15z"/>
<path d="M1853 4374 c-7 -7 -9 -15 -4 -18 4 -3 7 -25 6 -50 -1 -25 2 -43 7
-40 5 3 6 10 3 15 -4 5 2 9 11 9 16 0 16 1 -2 14 -18 14 -18 15 -1 21 9 4 17
11 17 17 0 5 -4 7 -9 4 -5 -3 -11 1 -14 8 -4 9 1 16 11 18 14 3 15 5 2 10 -8
3 -21 0 -27 -8z"/>
<path d="M1840 4090 c-8 -5 -10 -10 -5 -10 6 0 17 5 25 10 8 5 11 10 5 10 -5
0 -17 -5 -25 -10z"/>
<path d="M1855 4070 c-4 -6 -11 -7 -17 -4 -7 4 -8 2 -4 -4 10 -16 23 -15 30 3
6 17 0 20 -9 5z"/>
<path d="M1838 4033 c6 -2 12 -9 12 -14 0 -5 -6 -8 -12 -6 -16 3 -17 -25 -2
-30 12 -4 26 35 18 49 -3 4 -11 8 -17 7 -9 0 -9 -2 1 -6z"/>
<path d="M1850 3831 c0 -6 4 -13 10 -16 6 -3 7 1 4 9 -7 18 -14 21 -14 7z"/>
<path d="M1815 3749 c-4 -6 -5 -12 -2 -15 2 -3 7 2 10 11 7 17 1 20 -8 4z"/>
<path d="M1826 3572 c1 -15 3 -29 4 -32 6 -14 4 -36 -4 -48 -13 -18 1 -27 19
-12 11 9 13 16 5 24 -17 17 -11 29 8 15 15 -12 16 -12 5 2 -15 18 -6 62 11 52
6 -3 9 -4 6 0 -3 3 -9 6 -15 7 -5 1 -17 6 -26 10 -13 7 -15 4 -13 -18z m24 -7
c0 -8 -4 -15 -8 -15 -5 0 -9 7 -9 15 0 8 4 15 9 15 4 0 8 -7 8 -15z"/>
<path d="M1845 3460 c-3 -5 -1 -10 4 -10 6 0 11 5 11 10 0 6 -2 10 -4 10 -3 0
-8 -4 -11 -10z"/>
<path d="M1816 3451 c-8 -12 13 -46 22 -36 3 3 12 -1 21 -8 14 -10 14 -10 3 5
-7 9 -9 18 -5 20 4 3 2 3 -4 2 -7 -2 -16 4 -21 13 -7 11 -11 12 -16 4z"/>
<path d="M1835 3273 c-4 -11 0 -11 18 -2 31 16 32 18 8 16 -11 -1 -23 -7 -26
-14z"/>
<path d="M1827 2895 c-4 -8 -2 -17 3 -20 6 -4 10 -4 10 -1 0 2 3 11 6 20 3 9
2 16 -4 16 -5 0 -12 -7 -15 -15z"/>
<path d="M1890 2720 c0 -5 5 -10 11 -10 5 0 7 5 4 10 -3 6 -8 10 -11 10 -2 0
-4 -4 -4 -10z"/>
<path d="M1874 2652 c-6 -9 -9 -23 -7 -29 6 -16 29 -17 39 -1 5 8 2 9 -9 5 -9
-3 -19 -1 -23 5 -4 6 -3 8 4 4 14 -8 23 6 13 22 -5 8 -10 6 -17 -6z"/>
<path d="M1902 2600 c-20 -17 -22 -22 -10 -42 7 -13 11 -27 10 -31 -1 -5 2 -6
8 -2 6 4 17 2 25 -5 10 -8 15 -8 21 1 4 7 3 9 -4 5 -16 -10 -32 26 -21 47 6
10 7 17 2 16 -20 -3 -24 2 -13 16 17 20 10 18 -18 -5z m15 -40 c-1 -10 -5 -16
-9 -14 -5 3 -6 10 -3 15 4 5 1 9 -5 9 -6 0 -8 5 -5 10 9 15 24 2 22 -20z"/>
<path d="M1839 7213 c-13 -16 -12 -17 4 -4 9 7 17 15 17 17 0 8 -8 3 -21 -13z"/>
<path d="M1866 6614 c-5 -14 -4 -15 9 -4 17 14 19 20 6 20 -5 0 -12 -7 -15
-16z"/>
<path d="M1866 6553 c-6 -14 -5 -15 5 -6 7 7 10 15 7 18 -3 3 -9 -2 -12 -12z"/>
<path d="M1875 6201 c-3 -5 -2 -12 3 -15 5 -3 9 1 9 9 0 17 -3 19 -12 6z"/>
<path d="M14034 5163 c2 -10 6 -17 10 -16 15 3 16 11 2 22 -12 10 -14 9 -12
-6z"/>
<path d="M1840 4935 c-11 -13 -11 -18 0 -28 10 -9 11 -9 6 1 -4 7 -2 19 4 27
7 8 10 15 7 15 -2 0 -10 -7 -17 -15z"/>
</g>
</svg>
